<svg xmlns="http://www.w3.org/2000/svg" width="1200" height="780" viewBox="0 0 1200 780"><rect x="0" y="0" width="1200" height="780" fill="#f4f1e8"/><text x="24" y="38" font-family="monospace" font-size="22" fill="#111" font-weight="bold">Concept B — Chunky Cozy Chef</text><text x="24" y="60" font-family="monospace" font-size="13" fill="#444" font-weight="normal">Overcooked warmth: soft cream coat + teal pants, wider silhouette, rounder forms</text><rect x="24" y="80" width="222" height="650" fill="#e7e1d2"/><text x="34" y="104" font-family="monospace" font-size="14" fill="#222" font-weight="bold">Frozen</text><text x="34" y="120" font-family="monospace" font-size="12" fill="#555" font-weight="normal">~200°F</text><rect x="34" y="132" width="202" height="175" fill="#c7f0ff"/><rect x="106" y="138" width="6" height="6" fill="#fefefe"/><rect x="112" y="138" width="6" height="6" fill="#fefefe"/><rect x="94" y="144" width="6" height="6" fill="#fefefe"/><rect x="100" y="144" width="6" height="6" fill="#fefefe"/><rect x="106" y="144" width="6" height="6" fill="#fefefe"/><rect x="112" y="144" width="6" height="6" fill="#fefefe"/><rect x="118" y="144" width="6" height="6" fill="#fefefe"/><rect x="124" y="144" width="6" height="6" fill="#fefefe"/><rect x="88" y="150" width="6" height="6" fill="#fefefe"/><rect x="94" y="150" width="6" height="6" fill="#fefefe"/><rect x="100" y="150" width="6" height="6" fill="#fefefe"/><rect x="106" y="150" width="6" height="6" fill="#fefefe"/><rect x="112" y="150" width="6" height="6" fill="#fefefe"/><rect x="118" y="150" width="6" height="6" fill="#fefefe"/><rect x="124" y="150" width="6" height="6" fill="#fefefe"/><rect x="130" y="150" width="6" height="6" fill="#fefefe"/><rect x="88" y="156" width="6" height="6" fill="#fefefe"/><rect x="94" y="156" width="6" height="6" fill="#fefefe"/><rect x="100" y="156" width="6" height="6" fill="#fefefe"/><rect x="106" y="156" width="6" height="6" fill="#fefefe"/><rect x="112" y="156" width="6" height="6" fill="#fefefe"/><rect x="118" y="156" width="6" height="6" fill="#fefefe"/><rect x="124" y="156" width="6" height="6" fill="#fefefe"/><rect x="130" y="156" width="6" height="6" fill="#fefefe"/><rect x="94" y="162" width="6" height="6" fill="#fefefe"/><rect x="100" y="162" width="6" height="6" fill="#fefefe"/><rect x="106" y="162" width="6" height="6" fill="#fefefe"/><rect x="112" y="162" width="6" height="6" fill="#fefefe"/><rect x="118" y="162" width="6" height="6" fill="#fefefe"/><rect x="124" y="162" width="6" height="6" fill="#fefefe"/><rect x="100" y="168" width="6" height="6" fill="#3b2a20"/><rect x="106" y="168" width="6" height="6" fill="#3b2a20"/><rect x="112" y="168" width="6" height="6" fill="#3b2a20"/><rect x="118" y="168" width="6" height="6" fill="#3b2a20"/><rect x="94" y="174" width="6" height="6" fill="#3b2a20"/><rect x="100" y="174" width="6" height="6" fill="#d7e7f1"/><rect x="106" y="174" width="6" height="6" fill="#d7e7f1"/><rect x="112" y="174" width="6" height="6" fill="#d7e7f1"/><rect x="118" y="174" width="6" height="6" fill="#d7e7f1"/><rect x="124" y="174" width="6" height="6" fill="#3b2a20"/><rect x="88" y="180" width="6" height="6" fill="#3b2a20"/><rect x="94" y="180" width="6" height="6" fill="#d7e7f1"/><rect x="100" y="180" width="6" height="6" fill="#d7e7f1"/><rect x="106" y="180" width="6" height="6" fill="#d7e7f1"/><rect x="112" y="180" width="6" height="6" fill="#d7e7f1"/><rect x="118" y="180" width="6" height="6" fill="#d7e7f1"/><rect x="124" y="180" width="6" height="6" fill="#d7e7f1"/><rect x="130" y="180" width="6" height="6" fill="#3b2a20"/><rect x="88" y="186" width="6" height="6" fill="#3b2a20"/><rect x="94" y="186" width="6" height="6" fill="#d7e7f1"/><rect x="100" y="186" width="6" height="6" fill="#d7e7f1"/><rect x="106" y="186" width="6" height="6" fill="#d7e7f1"/><rect x="112" y="186" width="6" height="6" fill="#d7e7f1"/><rect x="118" y="186" width="6" height="6" fill="#d7e7f1"/><rect x="124" y="186" width="6" height="6" fill="#d7e7f1"/><rect x="130" y="186" width="6" height="6" fill="#3b2a20"/><rect x="88" y="192" width="6" height="6" fill="#3b2a20"/><rect x="94" y="192" width="6" height="6" fill="#d7e7f1"/><rect x="100" y="192" width="6" height="6" fill="#d7e7f1"/><rect x="106" y="192" width="6" height="6" fill="#d7e7f1"/><rect x="112" y="192" width="6" height="6" fill="#d7e7f1"/><rect x="118" y="192" width="6" height="6" fill="#d7e7f1"/><rect x="124" y="192" width="6" height="6" fill="#d7e7f1"/><rect x="130" y="192" width="6" height="6" fill="#3b2a20"/><rect x="82" y="198" width="6" height="6" fill="#3b2a20"/><rect x="88" y="198" width="6" height="6" fill="#d7e7f1"/><rect x="94" y="198" width="6" height="6" fill="#d7e7f1"/><rect x="100" y="198" width="6" height="6" fill="#d7e7f1"/><rect x="106" y="198" width="6" height="6" fill="#d7e7f1"/><rect x="112" y="198" width="6" height="6" fill="#d7e7f1"/><rect x="118" y="198" width="6" height="6" fill="#d7e7f1"/><rect x="124" y="198" width="6" height="6" fill="#d7e7f1"/><rect x="130" y="198" width="6" height="6" fill="#d7e7f1"/><rect x="136" y="198" width="6" height="6" fill="#3b2a20"/><rect x="82" y="204" width="6" height="6" fill="#3b2a20"/><rect x="88" y="204" width="6" height="6" fill="#d7e7f1"/><rect x="94" y="204" width="6" height="6" fill="#d7e7f1"/><rect x="100" y="204" width="6" height="6" fill="#d7e7f1"/><rect x="106" y="204" width="6" height="6" fill="#d7e7f1"/><rect x="112" y="204" width="6" height="6" fill="#d7e7f1"/><rect x="118" y="204" width="6" height="6" fill="#d7e7f1"/><rect x="124" y="204" width="6" height="6" fill="#d7e7f1"/><rect x="130" y="204" width="6" height="6" fill="#d7e7f1"/><rect x="136" y="204" width="6" height="6" fill="#3b2a20"/><rect x="82" y="210" width="6" height="6" fill="#ebe5d5"/><rect x="88" y="210" width="6" height="6" fill="#ebe5d5"/><rect x="94" y="210" width="6" height="6" fill="#ebe5d5"/><rect x="100" y="210" width="6" height="6" fill="#1f9a8a"/><rect x="106" y="210" width="6" height="6" fill="#1f9a8a"/><rect x="112" y="210" width="6" height="6" fill="#1f9a8a"/><rect x="118" y="210" width="6" height="6" fill="#1f9a8a"/><rect x="124" y="210" width="6" height="6" fill="#1f9a8a"/><rect x="130" y="210" width="6" height="6" fill="#1f9a8a"/><rect x="136" y="210" width="6" height="6" fill="#ebe5d5"/><rect x="142" y="210" width="6" height="6" fill="#ebe5d5"/><rect x="88" y="216" width="6" height="6" fill="#ebe5d5"/><rect x="94" y="216" width="6" height="6" fill="#ebe5d5"/><rect x="100" y="216" width="6" height="6" fill="#1f9a8a"/><rect x="106" y="216" width="6" height="6" fill="#1f9a8a"/><rect x="112" y="216" width="6" height="6" fill="#1f9a8a"/><rect x="118" y="216" width="6" height="6" fill="#1f9a8a"/><rect x="124" y="216" width="6" height="6" fill="#1f9a8a"/><rect x="130" y="216" width="6" height="6" fill="#ebe5d5"/><rect x="136" y="216" width="6" height="6" fill="#ebe5d5"/><rect x="94" y="222" width="6" height="6" fill="#ebe5d5"/><rect x="100" y="222" width="6" height="6" fill="#1f9a8a"/><rect x="106" y="222" width="6" height="6" fill="#1f9a8a"/><rect x="112" y="222" width="6" height="6" fill="#1f9a8a"/><rect x="118" y="222" width="6" height="6" fill="#ebe5d5"/><rect x="124" y="222" width="6" height="6" fill="#ebe5d5"/><rect x="94" y="228" width="6" height="6" fill="#1f9a8a"/><rect x="100" y="228" width="6" height="6" fill="#1f9a8a"/><rect x="118" y="228" width="6" height="6" fill="#1f9a8a"/><rect x="124" y="228" width="6" height="6" fill="#1f9a8a"/><rect x="88" y="234" width="6" height="6" fill="#1f9a8a"/><rect x="130" y="234" width="6" height="6" fill="#1f9a8a"/><rect x="88" y="240" width="6" height="6" fill="#1f9a8a"/><rect x="130" y="240" width="6" height="6" fill="#1f9a8a"/><rect x="88" y="246" width="6" height="6" fill="#1f9a8a"/><rect x="130" y="246" width="6" height="6" fill="#1f9a8a"/><rect x="94" y="252" width="6" height="6" fill="#1f9a8a"/><rect x="124" y="252" width="6" height="6" fill="#1f9a8a"/><text x="34" y="332" font-family="monospace" font-size="11" fill="#333" font-weight="normal">static / tiny breath</text><text x="34" y="348" font-family="monospace" font-size="11" fill="#333" font-weight="normal">ice block overlay</text><rect x="34" y="372" width="9" height="9" fill="#666"/><rect x="46" y="372" width="9" height="9" fill="#666"/><rect x="251" y="80" width="222" height="650" fill="#e7e1d2"/><text x="261" y="104" font-family="monospace" font-size="14" fill="#222" font-weight="bold">Thawing</text><text x="261" y="120" font-family="monospace" font-size="12" fill="#555" font-weight="normal">~300°F</text><rect x="261" y="132" width="202" height="175" fill="#dff6ff"/><rect x="333" y="138" width="6" height="6" fill="#fefefe"/><rect x="339" y="138" width="6" height="6" fill="#fefefe"/><rect x="321" y="144" width="6" height="6" fill="#fefefe"/><rect x="327" y="144" width="6" height="6" fill="#fefefe"/><rect x="333" y="144" width="6" height="6" fill="#fefefe"/><rect x="339" y="144" width="6" height="6" fill="#fefefe"/><rect x="345" y="144" width="6" height="6" fill="#fefefe"/><rect x="351" y="144" width="6" height="6" fill="#fefefe"/><rect x="315" y="150" width="6" height="6" fill="#fefefe"/><rect x="321" y="150" width="6" height="6" fill="#fefefe"/><rect x="327" y="150" width="6" height="6" fill="#fefefe"/><rect x="333" y="150" width="6" height="6" fill="#fefefe"/><rect x="339" y="150" width="6" height="6" fill="#fefefe"/><rect x="345" y="150" width="6" height="6" fill="#fefefe"/><rect x="351" y="150" width="6" height="6" fill="#fefefe"/><rect x="357" y="150" width="6" height="6" fill="#fefefe"/><rect x="315" y="156" width="6" height="6" fill="#fefefe"/><rect x="321" y="156" width="6" height="6" fill="#fefefe"/><rect x="327" y="156" width="6" height="6" fill="#fefefe"/><rect x="333" y="156" width="6" height="6" fill="#fefefe"/><rect x="339" y="156" width="6" height="6" fill="#fefefe"/><rect x="345" y="156" width="6" height="6" fill="#fefefe"/><rect x="351" y="156" width="6" height="6" fill="#fefefe"/><rect x="357" y="156" width="6" height="6" fill="#fefefe"/><rect x="321" y="162" width="6" height="6" fill="#fefefe"/><rect x="327" y="162" width="6" height="6" fill="#fefefe"/><rect x="333" y="162" width="6" height="6" fill="#fefefe"/><rect x="339" y="162" width="6" height="6" fill="#fefefe"/><rect x="345" y="162" width="6" height="6" fill="#fefefe"/><rect x="351" y="162" width="6" height="6" fill="#fefefe"/><rect x="327" y="168" width="6" height="6" fill="#3b2a20"/><rect x="333" y="168" width="6" height="6" fill="#3b2a20"/><rect x="339" y="168" width="6" height="6" fill="#3b2a20"/><rect x="345" y="168" width="6" height="6" fill="#3b2a20"/><rect x="321" y="174" width="6" height="6" fill="#3b2a20"/><rect x="327" y="174" width="6" height="6" fill="#efbf98"/><rect x="333" y="174" width="6" height="6" fill="#efbf98"/><rect x="339" y="174" width="6" height="6" fill="#efbf98"/><rect x="345" y="174" width="6" height="6" fill="#efbf98"/><rect x="351" y="174" width="6" height="6" fill="#3b2a20"/><rect x="315" y="180" width="6" height="6" fill="#3b2a20"/><rect x="321" y="180" width="6" height="6" fill="#efbf98"/><rect x="327" y="180" width="6" height="6" fill="#efbf98"/><rect x="333" y="180" width="6" height="6" fill="#efbf98"/><rect x="339" y="180" width="6" height="6" fill="#efbf98"/><rect x="345" y="180" width="6" height="6" fill="#efbf98"/><rect x="351" y="180" width="6" height="6" fill="#efbf98"/><rect x="357" y="180" width="6" height="6" fill="#3b2a20"/><rect x="315" y="186" width="6" height="6" fill="#3b2a20"/><rect x="321" y="186" width="6" height="6" fill="#efbf98"/><rect x="327" y="186" width="6" height="6" fill="#efbf98"/><rect x="333" y="186" width="6" height="6" fill="#efbf98"/><rect x="339" y="186" width="6" height="6" fill="#efbf98"/><rect x="345" y="186" width="6" height="6" fill="#efbf98"/><rect x="351" y="186" width="6" height="6" fill="#efbf98"/><rect x="357" y="186" width="6" height="6" fill="#3b2a20"/><rect x="315" y="192" width="6" height="6" fill="#3b2a20"/><rect x="321" y="192" width="6" height="6" fill="#efbf98"/><rect x="327" y="192" width="6" height="6" fill="#efbf98"/><rect x="333" y="192" width="6" height="6" fill="#efbf98"/><rect x="339" y="192" width="6" height="6" fill="#efbf98"/><rect x="345" y="192" width="6" height="6" fill="#efbf98"/><rect x="351" y="192" width="6" height="6" fill="#efbf98"/><rect x="357" y="192" width="6" height="6" fill="#3b2a20"/><rect x="309" y="198" width="6" height="6" fill="#3b2a20"/><rect x="315" y="198" width="6" height="6" fill="#efbf98"/><rect x="321" y="198" width="6" height="6" fill="#efbf98"/><rect x="327" y="198" width="6" height="6" fill="#efbf98"/><rect x="333" y="198" width="6" height="6" fill="#efbf98"/><rect x="339" y="198" width="6" height="6" fill="#efbf98"/><rect x="345" y="198" width="6" height="6" fill="#efbf98"/><rect x="351" y="198" width="6" height="6" fill="#efbf98"/><rect x="357" y="198" width="6" height="6" fill="#efbf98"/><rect x="363" y="198" width="6" height="6" fill="#3b2a20"/><rect x="309" y="204" width="6" height="6" fill="#3b2a20"/><rect x="315" y="204" width="6" height="6" fill="#efbf98"/><rect x="321" y="204" width="6" height="6" fill="#efbf98"/><rect x="327" y="204" width="6" height="6" fill="#efbf98"/><rect x="333" y="204" width="6" height="6" fill="#efbf98"/><rect x="339" y="204" width="6" height="6" fill="#efbf98"/><rect x="345" y="204" width="6" height="6" fill="#efbf98"/><rect x="351" y="204" width="6" height="6" fill="#efbf98"/><rect x="357" y="204" width="6" height="6" fill="#efbf98"/><rect x="363" y="204" width="6" height="6" fill="#3b2a20"/><rect x="309" y="210" width="6" height="6" fill="#ebe5d5"/><rect x="315" y="210" width="6" height="6" fill="#ebe5d5"/><rect x="321" y="210" width="6" height="6" fill="#ebe5d5"/><rect x="327" y="210" width="6" height="6" fill="#1f9a8a"/><rect x="333" y="210" width="6" height="6" fill="#1f9a8a"/><rect x="339" y="210" width="6" height="6" fill="#1f9a8a"/><rect x="345" y="210" width="6" height="6" fill="#1f9a8a"/><rect x="351" y="210" width="6" height="6" fill="#1f9a8a"/><rect x="357" y="210" width="6" height="6" fill="#1f9a8a"/><rect x="363" y="210" width="6" height="6" fill="#ebe5d5"/><rect x="369" y="210" width="6" height="6" fill="#ebe5d5"/><rect x="315" y="216" width="6" height="6" fill="#ebe5d5"/><rect x="321" y="216" width="6" height="6" fill="#ebe5d5"/><rect x="327" y="216" width="6" height="6" fill="#1f9a8a"/><rect x="333" y="216" width="6" height="6" fill="#1f9a8a"/><rect x="339" y="216" width="6" height="6" fill="#1f9a8a"/><rect x="345" y="216" width="6" height="6" fill="#1f9a8a"/><rect x="351" y="216" width="6" height="6" fill="#1f9a8a"/><rect x="357" y="216" width="6" height="6" fill="#ebe5d5"/><rect x="363" y="216" width="6" height="6" fill="#ebe5d5"/><rect x="321" y="222" width="6" height="6" fill="#ebe5d5"/><rect x="327" y="222" width="6" height="6" fill="#1f9a8a"/><rect x="333" y="222" width="6" height="6" fill="#1f9a8a"/><rect x="339" y="222" width="6" height="6" fill="#1f9a8a"/><rect x="345" y="222" width="6" height="6" fill="#ebe5d5"/><rect x="351" y="222" width="6" height="6" fill="#ebe5d5"/><rect x="321" y="228" width="6" height="6" fill="#1f9a8a"/><rect x="327" y="228" width="6" height="6" fill="#1f9a8a"/><rect x="345" y="228" width="6" height="6" fill="#1f9a8a"/><rect x="351" y="228" width="6" height="6" fill="#1f9a8a"/><rect x="315" y="234" width="6" height="6" fill="#1f9a8a"/><rect x="357" y="234" width="6" height="6" fill="#1f9a8a"/><rect x="315" y="240" width="6" height="6" fill="#1f9a8a"/><rect x="357" y="240" width="6" height="6" fill="#1f9a8a"/><rect x="315" y="246" width="6" height="6" fill="#1f9a8a"/><rect x="357" y="246" width="6" height="6" fill="#1f9a8a"/><rect x="321" y="252" width="6" height="6" fill="#1f9a8a"/><rect x="351" y="252" width="6" height="6" fill="#1f9a8a"/><text x="261" y="332" font-family="monospace" font-size="11" fill="#333" font-weight="normal">drips + blink start</text><text x="261" y="348" font-family="monospace" font-size="11" fill="#333" font-weight="normal">stiff movements</text><rect x="261" y="372" width="9" height="9" fill="#666"/><rect x="273" y="372" width="9" height="9" fill="#666"/><rect x="285" y="372" width="9" height="9" fill="#666"/><rect x="478" y="80" width="222" height="650" fill="#e7e1d2"/><text x="488" y="104" font-family="monospace" font-size="14" fill="#222" font-weight="bold">Active</text><text x="488" y="120" font-family="monospace" font-size="12" fill="#555" font-weight="normal">~400°F</text><rect x="488" y="132" width="202" height="175" fill="#e7f8d8"/><rect x="560" y="138" width="6" height="6" fill="#fefefe"/><rect x="566" y="138" width="6" height="6" fill="#fefefe"/><rect x="548" y="144" width="6" height="6" fill="#fefefe"/><rect x="554" y="144" width="6" height="6" fill="#fefefe"/><rect x="560" y="144" width="6" height="6" fill="#fefefe"/><rect x="566" y="144" width="6" height="6" fill="#fefefe"/><rect x="572" y="144" width="6" height="6" fill="#fefefe"/><rect x="578" y="144" width="6" height="6" fill="#fefefe"/><rect x="542" y="150" width="6" height="6" fill="#fefefe"/><rect x="548" y="150" width="6" height="6" fill="#fefefe"/><rect x="554" y="150" width="6" height="6" fill="#fefefe"/><rect x="560" y="150" width="6" height="6" fill="#fefefe"/><rect x="566" y="150" width="6" height="6" fill="#fefefe"/><rect x="572" y="150" width="6" height="6" fill="#fefefe"/><rect x="578" y="150" width="6" height="6" fill="#fefefe"/><rect x="584" y="150" width="6" height="6" fill="#fefefe"/><rect x="542" y="156" width="6" height="6" fill="#fefefe"/><rect x="548" y="156" width="6" height="6" fill="#fefefe"/><rect x="554" y="156" width="6" height="6" fill="#fefefe"/><rect x="560" y="156" width="6" height="6" fill="#fefefe"/><rect x="566" y="156" width="6" height="6" fill="#fefefe"/><rect x="572" y="156" width="6" height="6" fill="#fefefe"/><rect x="578" y="156" width="6" height="6" fill="#fefefe"/><rect x="584" y="156" width="6" height="6" fill="#fefefe"/><rect x="548" y="162" width="6" height="6" fill="#fefefe"/><rect x="554" y="162" width="6" height="6" fill="#fefefe"/><rect x="560" y="162" width="6" height="6" fill="#fefefe"/><rect x="566" y="162" width="6" height="6" fill="#fefefe"/><rect x="572" y="162" width="6" height="6" fill="#fefefe"/><rect x="578" y="162" width="6" height="6" fill="#fefefe"/><rect x="554" y="168" width="6" height="6" fill="#3b2a20"/><rect x="560" y="168" width="6" height="6" fill="#3b2a20"/><rect x="566" y="168" width="6" height="6" fill="#3b2a20"/><rect x="572" y="168" width="6" height="6" fill="#3b2a20"/><rect x="548" y="174" width="6" height="6" fill="#3b2a20"/><rect x="554" y="174" width="6" height="6" fill="#efbf98"/><rect x="560" y="174" width="6" height="6" fill="#efbf98"/><rect x="566" y="174" width="6" height="6" fill="#efbf98"/><rect x="572" y="174" width="6" height="6" fill="#efbf98"/><rect x="578" y="174" width="6" height="6" fill="#3b2a20"/><rect x="542" y="180" width="6" height="6" fill="#3b2a20"/><rect x="548" y="180" width="6" height="6" fill="#efbf98"/><rect x="554" y="180" width="6" height="6" fill="#efbf98"/><rect x="560" y="180" width="6" height="6" fill="#efbf98"/><rect x="566" y="180" width="6" height="6" fill="#efbf98"/><rect x="572" y="180" width="6" height="6" fill="#efbf98"/><rect x="578" y="180" width="6" height="6" fill="#efbf98"/><rect x="584" y="180" width="6" height="6" fill="#3b2a20"/><rect x="542" y="186" width="6" height="6" fill="#3b2a20"/><rect x="548" y="186" width="6" height="6" fill="#efbf98"/><rect x="554" y="186" width="6" height="6" fill="#efbf98"/><rect x="560" y="186" width="6" height="6" fill="#efbf98"/><rect x="566" y="186" width="6" height="6" fill="#efbf98"/><rect x="572" y="186" width="6" height="6" fill="#efbf98"/><rect x="578" y="186" width="6" height="6" fill="#efbf98"/><rect x="584" y="186" width="6" height="6" fill="#3b2a20"/><rect x="542" y="192" width="6" height="6" fill="#3b2a20"/><rect x="548" y="192" width="6" height="6" fill="#efbf98"/><rect x="554" y="192" width="6" height="6" fill="#efbf98"/><rect x="560" y="192" width="6" height="6" fill="#efbf98"/><rect x="566" y="192" width="6" height="6" fill="#efbf98"/><rect x="572" y="192" width="6" height="6" fill="#efbf98"/><rect x="578" y="192" width="6" height="6" fill="#efbf98"/><rect x="584" y="192" width="6" height="6" fill="#3b2a20"/><rect x="536" y="198" width="6" height="6" fill="#3b2a20"/><rect x="542" y="198" width="6" height="6" fill="#efbf98"/><rect x="548" y="198" width="6" height="6" fill="#efbf98"/><rect x="554" y="198" width="6" height="6" fill="#efbf98"/><rect x="560" y="198" width="6" height="6" fill="#efbf98"/><rect x="566" y="198" width="6" height="6" fill="#efbf98"/><rect x="572" y="198" width="6" height="6" fill="#efbf98"/><rect x="578" y="198" width="6" height="6" fill="#efbf98"/><rect x="584" y="198" width="6" height="6" fill="#efbf98"/><rect x="590" y="198" width="6" height="6" fill="#3b2a20"/><rect x="536" y="204" width="6" height="6" fill="#3b2a20"/><rect x="542" y="204" width="6" height="6" fill="#efbf98"/><rect x="548" y="204" width="6" height="6" fill="#efbf98"/><rect x="554" y="204" width="6" height="6" fill="#efbf98"/><rect x="560" y="204" width="6" height="6" fill="#efbf98"/><rect x="566" y="204" width="6" height="6" fill="#efbf98"/><rect x="572" y="204" width="6" height="6" fill="#efbf98"/><rect x="578" y="204" width="6" height="6" fill="#efbf98"/><rect x="584" y="204" width="6" height="6" fill="#efbf98"/><rect x="590" y="204" width="6" height="6" fill="#3b2a20"/><rect x="536" y="210" width="6" height="6" fill="#ebe5d5"/><rect x="542" y="210" width="6" height="6" fill="#ebe5d5"/><rect x="548" y="210" width="6" height="6" fill="#ebe5d5"/><rect x="554" y="210" width="6" height="6" fill="#1f9a8a"/><rect x="560" y="210" width="6" height="6" fill="#1f9a8a"/><rect x="566" y="210" width="6" height="6" fill="#1f9a8a"/><rect x="572" y="210" width="6" height="6" fill="#1f9a8a"/><rect x="578" y="210" width="6" height="6" fill="#1f9a8a"/><rect x="584" y="210" width="6" height="6" fill="#1f9a8a"/><rect x="590" y="210" width="6" height="6" fill="#ebe5d5"/><rect x="596" y="210" width="6" height="6" fill="#ebe5d5"/><rect x="542" y="216" width="6" height="6" fill="#ebe5d5"/><rect x="548" y="216" width="6" height="6" fill="#ebe5d5"/><rect x="554" y="216" width="6" height="6" fill="#1f9a8a"/><rect x="560" y="216" width="6" height="6" fill="#1f9a8a"/><rect x="566" y="216" width="6" height="6" fill="#1f9a8a"/><rect x="572" y="216" width="6" height="6" fill="#1f9a8a"/><rect x="578" y="216" width="6" height="6" fill="#1f9a8a"/><rect x="584" y="216" width="6" height="6" fill="#ebe5d5"/><rect x="590" y="216" width="6" height="6" fill="#ebe5d5"/><rect x="548" y="222" width="6" height="6" fill="#ebe5d5"/><rect x="554" y="222" width="6" height="6" fill="#1f9a8a"/><rect x="560" y="222" width="6" height="6" fill="#1f9a8a"/><rect x="566" y="222" width="6" height="6" fill="#1f9a8a"/><rect x="572" y="222" width="6" height="6" fill="#ebe5d5"/><rect x="578" y="222" width="6" height="6" fill="#ebe5d5"/><rect x="548" y="228" width="6" height="6" fill="#1f9a8a"/><rect x="554" y="228" width="6" height="6" fill="#1f9a8a"/><rect x="572" y="228" width="6" height="6" fill="#1f9a8a"/><rect x="578" y="228" width="6" height="6" fill="#1f9a8a"/><rect x="542" y="234" width="6" height="6" fill="#1f9a8a"/><rect x="584" y="234" width="6" height="6" fill="#1f9a8a"/><rect x="542" y="240" width="6" height="6" fill="#1f9a8a"/><rect x="584" y="240" width="6" height="6" fill="#1f9a8a"/><rect x="542" y="246" width="6" height="6" fill="#1f9a8a"/><rect x="584" y="246" width="6" height="6" fill="#1f9a8a"/><rect x="548" y="252" width="6" height="6" fill="#1f9a8a"/><rect x="578" y="252" width="6" height="6" fill="#1f9a8a"/><text x="488" y="332" font-family="monospace" font-size="11" fill="#333" font-weight="normal">pizza toss loop</text><text x="488" y="348" font-family="monospace" font-size="11" fill="#333" font-weight="normal">happy bounce</text><rect x="488" y="372" width="9" height="9" fill="#666"/><rect x="500" y="372" width="9" height="9" fill="#666"/><rect x="512" y="372" width="9" height="9" fill="#666"/><rect x="524" y="372" width="9" height="9" fill="#666"/><rect x="536" y="372" width="9" height="9" fill="#666"/><rect x="705" y="80" width="222" height="650" fill="#e7e1d2"/><text x="715" y="104" font-family="monospace" font-size="14" fill="#222" font-weight="bold">Hot</text><text x="715" y="120" font-family="monospace" font-size="12" fill="#555" font-weight="normal">~500°F</text><rect x="715" y="132" width="202" height="175" fill="#ffe0a8"/><rect x="787" y="138" width="6" height="6" fill="#fefefe"/><rect x="793" y="138" width="6" height="6" fill="#fefefe"/><rect x="775" y="144" width="6" height="6" fill="#fefefe"/><rect x="781" y="144" width="6" height="6" fill="#fefefe"/><rect x="787" y="144" width="6" height="6" fill="#fefefe"/><rect x="793" y="144" width="6" height="6" fill="#fefefe"/><rect x="799" y="144" width="6" height="6" fill="#fefefe"/><rect x="805" y="144" width="6" height="6" fill="#fefefe"/><rect x="769" y="150" width="6" height="6" fill="#fefefe"/><rect x="775" y="150" width="6" height="6" fill="#fefefe"/><rect x="781" y="150" width="6" height="6" fill="#fefefe"/><rect x="787" y="150" width="6" height="6" fill="#fefefe"/><rect x="793" y="150" width="6" height="6" fill="#fefefe"/><rect x="799" y="150" width="6" height="6" fill="#fefefe"/><rect x="805" y="150" width="6" height="6" fill="#fefefe"/><rect x="811" y="150" width="6" height="6" fill="#fefefe"/><rect x="769" y="156" width="6" height="6" fill="#fefefe"/><rect x="775" y="156" width="6" height="6" fill="#fefefe"/><rect x="781" y="156" width="6" height="6" fill="#fefefe"/><rect x="787" y="156" width="6" height="6" fill="#fefefe"/><rect x="793" y="156" width="6" height="6" fill="#fefefe"/><rect x="799" y="156" width="6" height="6" fill="#fefefe"/><rect x="805" y="156" width="6" height="6" fill="#fefefe"/><rect x="811" y="156" width="6" height="6" fill="#fefefe"/><rect x="775" y="162" width="6" height="6" fill="#fefefe"/><rect x="781" y="162" width="6" height="6" fill="#fefefe"/><rect x="787" y="162" width="6" height="6" fill="#fefefe"/><rect x="793" y="162" width="6" height="6" fill="#fefefe"/><rect x="799" y="162" width="6" height="6" fill="#fefefe"/><rect x="805" y="162" width="6" height="6" fill="#fefefe"/><rect x="781" y="168" width="6" height="6" fill="#3b2a20"/><rect x="787" y="168" width="6" height="6" fill="#3b2a20"/><rect x="793" y="168" width="6" height="6" fill="#3b2a20"/><rect x="799" y="168" width="6" height="6" fill="#3b2a20"/><rect x="775" y="174" width="6" height="6" fill="#3b2a20"/><rect x="781" y="174" width="6" height="6" fill="#e79e7d"/><rect x="787" y="174" width="6" height="6" fill="#e79e7d"/><rect x="793" y="174" width="6" height="6" fill="#e79e7d"/><rect x="799" y="174" width="6" height="6" fill="#e79e7d"/><rect x="805" y="174" width="6" height="6" fill="#3b2a20"/><rect x="769" y="180" width="6" height="6" fill="#3b2a20"/><rect x="775" y="180" width="6" height="6" fill="#e79e7d"/><rect x="781" y="180" width="6" height="6" fill="#e79e7d"/><rect x="787" y="180" width="6" height="6" fill="#e79e7d"/><rect x="793" y="180" width="6" height="6" fill="#e79e7d"/><rect x="799" y="180" width="6" height="6" fill="#e79e7d"/><rect x="805" y="180" width="6" height="6" fill="#e79e7d"/><rect x="811" y="180" width="6" height="6" fill="#3b2a20"/><rect x="769" y="186" width="6" height="6" fill="#3b2a20"/><rect x="775" y="186" width="6" height="6" fill="#e79e7d"/><rect x="781" y="186" width="6" height="6" fill="#e79e7d"/><rect x="787" y="186" width="6" height="6" fill="#e79e7d"/><rect x="793" y="186" width="6" height="6" fill="#e79e7d"/><rect x="799" y="186" width="6" height="6" fill="#e79e7d"/><rect x="805" y="186" width="6" height="6" fill="#e79e7d"/><rect x="811" y="186" width="6" height="6" fill="#3b2a20"/><rect x="769" y="192" width="6" height="6" fill="#3b2a20"/><rect x="775" y="192" width="6" height="6" fill="#e79e7d"/><rect x="781" y="192" width="6" height="6" fill="#e79e7d"/><rect x="787" y="192" width="6" height="6" fill="#e79e7d"/><rect x="793" y="192" width="6" height="6" fill="#e79e7d"/><rect x="799" y="192" width="6" height="6" fill="#e79e7d"/><rect x="805" y="192" width="6" height="6" fill="#e79e7d"/><rect x="811" y="192" width="6" height="6" fill="#3b2a20"/><rect x="763" y="198" width="6" height="6" fill="#3b2a20"/><rect x="769" y="198" width="6" height="6" fill="#e79e7d"/><rect x="775" y="198" width="6" height="6" fill="#e79e7d"/><rect x="781" y="198" width="6" height="6" fill="#e79e7d"/><rect x="787" y="198" width="6" height="6" fill="#e79e7d"/><rect x="793" y="198" width="6" height="6" fill="#e79e7d"/><rect x="799" y="198" width="6" height="6" fill="#e79e7d"/><rect x="805" y="198" width="6" height="6" fill="#e79e7d"/><rect x="811" y="198" width="6" height="6" fill="#e79e7d"/><rect x="817" y="198" width="6" height="6" fill="#3b2a20"/><rect x="763" y="204" width="6" height="6" fill="#3b2a20"/><rect x="769" y="204" width="6" height="6" fill="#e79e7d"/><rect x="775" y="204" width="6" height="6" fill="#e79e7d"/><rect x="781" y="204" width="6" height="6" fill="#e79e7d"/><rect x="787" y="204" width="6" height="6" fill="#e79e7d"/><rect x="793" y="204" width="6" height="6" fill="#e79e7d"/><rect x="799" y="204" width="6" height="6" fill="#e79e7d"/><rect x="805" y="204" width="6" height="6" fill="#e79e7d"/><rect x="811" y="204" width="6" height="6" fill="#e79e7d"/><rect x="817" y="204" width="6" height="6" fill="#3b2a20"/><rect x="763" y="210" width="6" height="6" fill="#ebe5d5"/><rect x="769" y="210" width="6" height="6" fill="#ebe5d5"/><rect x="775" y="210" width="6" height="6" fill="#ebe5d5"/><rect x="781" y="210" width="6" height="6" fill="#1f9a8a"/><rect x="787" y="210" width="6" height="6" fill="#1f9a8a"/><rect x="793" y="210" width="6" height="6" fill="#1f9a8a"/><rect x="799" y="210" width="6" height="6" fill="#1f9a8a"/><rect x="805" y="210" width="6" height="6" fill="#1f9a8a"/><rect x="811" y="210" width="6" height="6" fill="#1f9a8a"/><rect x="817" y="210" width="6" height="6" fill="#ebe5d5"/><rect x="823" y="210" width="6" height="6" fill="#ebe5d5"/><rect x="769" y="216" width="6" height="6" fill="#ebe5d5"/><rect x="775" y="216" width="6" height="6" fill="#ebe5d5"/><rect x="781" y="216" width="6" height="6" fill="#1f9a8a"/><rect x="787" y="216" width="6" height="6" fill="#1f9a8a"/><rect x="793" y="216" width="6" height="6" fill="#1f9a8a"/><rect x="799" y="216" width="6" height="6" fill="#1f9a8a"/><rect x="805" y="216" width="6" height="6" fill="#1f9a8a"/><rect x="811" y="216" width="6" height="6" fill="#ebe5d5"/><rect x="817" y="216" width="6" height="6" fill="#ebe5d5"/><rect x="775" y="222" width="6" height="6" fill="#ebe5d5"/><rect x="781" y="222" width="6" height="6" fill="#1f9a8a"/><rect x="787" y="222" width="6" height="6" fill="#1f9a8a"/><rect x="793" y="222" width="6" height="6" fill="#1f9a8a"/><rect x="799" y="222" width="6" height="6" fill="#ebe5d5"/><rect x="805" y="222" width="6" height="6" fill="#ebe5d5"/><rect x="775" y="228" width="6" height="6" fill="#1f9a8a"/><rect x="781" y="228" width="6" height="6" fill="#1f9a8a"/><rect x="799" y="228" width="6" height="6" fill="#1f9a8a"/><rect x="805" y="228" width="6" height="6" fill="#1f9a8a"/><rect x="769" y="234" width="6" height="6" fill="#1f9a8a"/><rect x="811" y="234" width="6" height="6" fill="#1f9a8a"/><rect x="769" y="240" width="6" height="6" fill="#1f9a8a"/><rect x="811" y="240" width="6" height="6" fill="#1f9a8a"/><rect x="769" y="246" width="6" height="6" fill="#1f9a8a"/><rect x="811" y="246" width="6" height="6" fill="#1f9a8a"/><rect x="775" y="252" width="6" height="6" fill="#1f9a8a"/><rect x="805" y="252" width="6" height="6" fill="#1f9a8a"/><text x="715" y="332" font-family="monospace" font-size="11" fill="#333" font-weight="normal">sweat drops + fan self</text><text x="715" y="348" font-family="monospace" font-size="11" fill="#333" font-weight="normal">red cheeks</text><rect x="715" y="372" width="9" height="9" fill="#666"/><rect x="727" y="372" width="9" height="9" fill="#666"/><rect x="739" y="372" width="9" height="9" fill="#666"/><rect x="751" y="372" width="9" height="9" fill="#666"/><rect x="763" y="372" width="9" height="9" fill="#666"/><rect x="775" y="372" width="9" height="9" fill="#666"/><rect x="932" y="80" width="222" height="650" fill="#e7e1d2"/><text x="942" y="104" font-family="monospace" font-size="14" fill="#222" font-weight="bold">Very Hot</text><text x="942" y="120" font-family="monospace" font-size="12" fill="#555" font-weight="normal">500°F+</text><rect x="942" y="132" width="202" height="175" fill="#231816"/><rect x="942" y="132" width="14" height="175" fill="#ff6a21"/><rect x="1130" y="132" width="14" height="175" fill="#ff6a21"/><rect x="1014" y="138" width="6" height="6" fill="#fefefe"/><rect x="1020" y="138" width="6" height="6" fill="#fefefe"/><rect x="1002" y="144" width="6" height="6" fill="#fefefe"/><rect x="1008" y="144" width="6" height="6" fill="#fefefe"/><rect x="1014" y="144" width="6" height="6" fill="#fefefe"/><rect x="1020" y="144" width="6" height="6" fill="#fefefe"/><rect x="1026" y="144" width="6" height="6" fill="#fefefe"/><rect x="1032" y="144" width="6" height="6" fill="#fefefe"/><rect x="996" y="150" width="6" height="6" fill="#fefefe"/><rect x="1002" y="150" width="6" height="6" fill="#fefefe"/><rect x="1008" y="150" width="6" height="6" fill="#fefefe"/><rect x="1014" y="150" width="6" height="6" fill="#fefefe"/><rect x="1020" y="150" width="6" height="6" fill="#fefefe"/><rect x="1026" y="150" width="6" height="6" fill="#fefefe"/><rect x="1032" y="150" width="6" height="6" fill="#fefefe"/><rect x="1038" y="150" width="6" height="6" fill="#fefefe"/><rect x="996" y="156" width="6" height="6" fill="#fefefe"/><rect x="1002" y="156" width="6" height="6" fill="#fefefe"/><rect x="1008" y="156" width="6" height="6" fill="#fefefe"/><rect x="1014" y="156" width="6" height="6" fill="#fefefe"/><rect x="1020" y="156" width="6" height="6" fill="#fefefe"/><rect x="1026" y="156" width="6" height="6" fill="#fefefe"/><rect x="1032" y="156" width="6" height="6" fill="#fefefe"/><rect x="1038" y="156" width="6" height="6" fill="#fefefe"/><rect x="1002" y="162" width="6" height="6" fill="#fefefe"/><rect x="1008" y="162" width="6" height="6" fill="#fefefe"/><rect x="1014" y="162" width="6" height="6" fill="#fefefe"/><rect x="1020" y="162" width="6" height="6" fill="#fefefe"/><rect x="1026" y="162" width="6" height="6" fill="#fefefe"/><rect x="1032" y="162" width="6" height="6" fill="#fefefe"/><rect x="1008" y="168" width="6" height="6" fill="#3b2a20"/><rect x="1014" y="168" width="6" height="6" fill="#3b2a20"/><rect x="1020" y="168" width="6" height="6" fill="#3b2a20"/><rect x="1026" y="168" width="6" height="6" fill="#3b2a20"/><rect x="1002" y="174" width="6" height="6" fill="#3b2a20"/><rect x="1008" y="174" width="6" height="6" fill="#cc5648"/><rect x="1014" y="174" width="6" height="6" fill="#cc5648"/><rect x="1020" y="174" width="6" height="6" fill="#cc5648"/><rect x="1026" y="174" width="6" height="6" fill="#cc5648"/><rect x="1032" y="174" width="6" height="6" fill="#3b2a20"/><rect x="996" y="180" width="6" height="6" fill="#3b2a20"/><rect x="1002" y="180" width="6" height="6" fill="#cc5648"/><rect x="1008" y="180" width="6" height="6" fill="#cc5648"/><rect x="1014" y="180" width="6" height="6" fill="#cc5648"/><rect x="1020" y="180" width="6" height="6" fill="#cc5648"/><rect x="1026" y="180" width="6" height="6" fill="#cc5648"/><rect x="1032" y="180" width="6" height="6" fill="#cc5648"/><rect x="1038" y="180" width="6" height="6" fill="#3b2a20"/><rect x="996" y="186" width="6" height="6" fill="#3b2a20"/><rect x="1002" y="186" width="6" height="6" fill="#cc5648"/><rect x="1008" y="186" width="6" height="6" fill="#cc5648"/><rect x="1014" y="186" width="6" height="6" fill="#cc5648"/><rect x="1020" y="186" width="6" height="6" fill="#cc5648"/><rect x="1026" y="186" width="6" height="6" fill="#cc5648"/><rect x="1032" y="186" width="6" height="6" fill="#cc5648"/><rect x="1038" y="186" width="6" height="6" fill="#3b2a20"/><rect x="996" y="192" width="6" height="6" fill="#3b2a20"/><rect x="1002" y="192" width="6" height="6" fill="#cc5648"/><rect x="1008" y="192" width="6" height="6" fill="#cc5648"/><rect x="1014" y="192" width="6" height="6" fill="#cc5648"/><rect x="1020" y="192" width="6" height="6" fill="#cc5648"/><rect x="1026" y="192" width="6" height="6" fill="#cc5648"/><rect x="1032" y="192" width="6" height="6" fill="#cc5648"/><rect x="1038" y="192" width="6" height="6" fill="#3b2a20"/><rect x="990" y="198" width="6" height="6" fill="#3b2a20"/><rect x="996" y="198" width="6" height="6" fill="#cc5648"/><rect x="1002" y="198" width="6" height="6" fill="#cc5648"/><rect x="1008" y="198" width="6" height="6" fill="#cc5648"/><rect x="1014" y="198" width="6" height="6" fill="#cc5648"/><rect x="1020" y="198" width="6" height="6" fill="#cc5648"/><rect x="1026" y="198" width="6" height="6" fill="#cc5648"/><rect x="1032" y="198" width="6" height="6" fill="#cc5648"/><rect x="1038" y="198" width="6" height="6" fill="#cc5648"/><rect x="1044" y="198" width="6" height="6" fill="#3b2a20"/><rect x="990" y="204" width="6" height="6" fill="#3b2a20"/><rect x="996" y="204" width="6" height="6" fill="#cc5648"/><rect x="1002" y="204" width="6" height="6" fill="#cc5648"/><rect x="1008" y="204" width="6" height="6" fill="#cc5648"/><rect x="1014" y="204" width="6" height="6" fill="#cc5648"/><rect x="1020" y="204" width="6" height="6" fill="#cc5648"/><rect x="1026" y="204" width="6" height="6" fill="#cc5648"/><rect x="1032" y="204" width="6" height="6" fill="#cc5648"/><rect x="1038" y="204" width="6" height="6" fill="#cc5648"/><rect x="1044" y="204" width="6" height="6" fill="#3b2a20"/><rect x="990" y="210" width="6" height="6" fill="#ebe5d5"/><rect x="996" y="210" width="6" height="6" fill="#ebe5d5"/><rect x="1002" y="210" width="6" height="6" fill="#ebe5d5"/><rect x="1008" y="210" width="6" height="6" fill="#1f9a8a"/><rect x="1014" y="210" width="6" height="6" fill="#1f9a8a"/><rect x="1020" y="210" width="6" height="6" fill="#1f9a8a"/><rect x="1026" y="210" width="6" height="6" fill="#1f9a8a"/><rect x="1032" y="210" width="6" height="6" fill="#1f9a8a"/><rect x="1038" y="210" width="6" height="6" fill="#1f9a8a"/><rect x="1044" y="210" width="6" height="6" fill="#ebe5d5"/><rect x="1050" y="210" width="6" height="6" fill="#ebe5d5"/><rect x="996" y="216" width="6" height="6" fill="#ebe5d5"/><rect x="1002" y="216" width="6" height="6" fill="#ebe5d5"/><rect x="1008" y="216" width="6" height="6" fill="#1f9a8a"/><rect x="1014" y="216" width="6" height="6" fill="#1f9a8a"/><rect x="1020" y="216" width="6" height="6" fill="#1f9a8a"/><rect x="1026" y="216" width="6" height="6" fill="#1f9a8a"/><rect x="1032" y="216" width="6" height="6" fill="#1f9a8a"/><rect x="1038" y="216" width="6" height="6" fill="#ebe5d5"/><rect x="1044" y="216" width="6" height="6" fill="#ebe5d5"/><rect x="1002" y="222" width="6" height="6" fill="#ebe5d5"/><rect x="1008" y="222" width="6" height="6" fill="#1f9a8a"/><rect x="1014" y="222" width="6" height="6" fill="#1f9a8a"/><rect x="1020" y="222" width="6" height="6" fill="#1f9a8a"/><rect x="1026" y="222" width="6" height="6" fill="#ebe5d5"/><rect x="1032" y="222" width="6" height="6" fill="#ebe5d5"/><rect x="1002" y="228" width="6" height="6" fill="#1f9a8a"/><rect x="1008" y="228" width="6" height="6" fill="#1f9a8a"/><rect x="1026" y="228" width="6" height="6" fill="#1f9a8a"/><rect x="1032" y="228" width="6" height="6" fill="#1f9a8a"/><rect x="996" y="234" width="6" height="6" fill="#1f9a8a"/><rect x="1038" y="234" width="6" height="6" fill="#1f9a8a"/><rect x="996" y="240" width="6" height="6" fill="#1f9a8a"/><rect x="1038" y="240" width="6" height="6" fill="#1f9a8a"/><rect x="996" y="246" width="6" height="6" fill="#1f9a8a"/><rect x="1038" y="246" width="6" height="6" fill="#1f9a8a"/><rect x="1002" y="252" width="6" height="6" fill="#1f9a8a"/><rect x="1032" y="252" width="6" height="6" fill="#1f9a8a"/><text x="942" y="332" font-family="monospace" font-size="11" fill="#333" font-weight="normal">panting + shirt off</text><text x="942" y="348" font-family="monospace" font-size="11" fill="#333" font-weight="normal">fire edges</text><rect x="942" y="372" width="9" height="9" fill="#666"/><rect x="954" y="372" width="9" height="9" fill="#666"/><rect x="966" y="372" width="9" height="9" fill="#666"/><rect x="978" y="372" width="9" height="9" fill="#666"/><rect x="990" y="372" width="9" height="9" fill="#666"/><rect x="1002" y="372" width="9" height="9" fill="#666"/><rect x="1014" y="372" width="9" height="9" fill="#666"/><rect x="1026" y="372" width="9" height="9" fill="#666"/><text x="24" y="748" font-family="monospace" font-size="13" fill="#222" font-weight="bold">Palette DNA:</text><rect x="160" y="734" width="18" height="18" fill="#fefefe"/><text x="182" y="747" font-family="monospace" font-size="11" fill="#333" font-weight="normal">hat</text><rect x="285" y="734" width="18" height="18" fill="#3b2a20"/><text x="307" y="747" font-family="monospace" font-size="11" fill="#333" font-weight="normal">hair/moustache</text><rect x="410" y="734" width="18" height="18" fill="#efbf98"/><text x="432" y="747" font-family="monospace" font-size="11" fill="#333" font-weight="normal">skin</text><rect x="535" y="734" width="18" height="18" fill="#ebe5d5"/><text x="557" y="747" font-family="monospace" font-size="11" fill="#333" font-weight="normal">coat</text><rect x="660" y="734" width="18" height="18" fill="#1f9a8a"/><text x="682" y="747" font-family="monospace" font-size="11" fill="#333" font-weight="normal">pants</text><rect x="785" y="734" width="18" height="18" fill="#ff6a21"/><text x="807" y="747" font-family="monospace" font-size="11" fill="#333" font-weight="normal">fire fx</text></svg>