<svg xmlns="http://www.w3.org/2000/svg" width="1260" height="780" viewBox="0 0 1260 780"><rect x="0" y="0" width="1260" height="780" fill="#f5f0e6" stroke="none" stroke-width="0" rx="0" ry="0"/><text x="24" y="38" font-family="Verdana,Arial,sans-serif" font-size="26" fill="#131313" font-weight="bold">Concept B — Kitchen Brawler (HD Sprite)</text><text x="24" y="62" font-family="Verdana,Arial,sans-serif" font-size="13" fill="#3d3d3d" font-weight="normal">Chunkier body language, exaggerated comedy gestures, warm/chaotic cooking tone</text><rect x="20" y="84" width="244" height="640" fill="#e8dfcf" stroke="#c6b9a2" stroke-width="1" rx="10" ry="10"/><text x="32" y="110" font-family="Verdana,Arial,sans-serif" font-size="15" fill="#1f1f1f" font-weight="bold">Frozen</text><text x="32" y="128" font-family="Verdana,Arial,sans-serif" font-size="12" fill="#555" font-weight="normal">~200°F</text><rect x="30" y="136" width="224" height="230" fill="#d5ecff" stroke="none" stroke-width="0" rx="8" ry="8"/><rect x="97.3" y="328.29999999999995" width="92.0" height="16.099999999999998" fill="#00000022" stroke="none" stroke-width="0" rx="9.2" ry="9.2"/><rect x="115.69999999999999" y="270.8" width="20.7" height="55.199999999999996" fill="#1d9688" stroke="none" stroke-width="0" rx="6.8999999999999995" ry="6.8999999999999995"/><rect x="150.2" y="270.8" width="20.7" height="55.199999999999996" fill="#1d9688" stroke="none" stroke-width="0" rx="6.8999999999999995" ry="6.8999999999999995"/><rect x="111.1" y="316.79999999999995" width="29.9" height="13.799999999999999" fill="#2a2a2a" stroke="none" stroke-width="0" rx="4.6" ry="4.6"/><rect x="145.6" y="316.79999999999995" width="29.9" height="13.799999999999999" fill="#2a2a2a" stroke="none" stroke-width="0" rx="4.6" ry="4.6"/><rect x="99.6" y="215.6" width="87.39999999999999" height="62.099999999999994" fill="#f0ece0" stroke="#2a2a2a66" stroke-width="2.3" rx="16.099999999999998" ry="16.099999999999998"/><rect x="137.55" y="215.6" width="11.5" height="62.099999999999994" fill="#e56f4a" stroke="none" stroke-width="0" rx="4.6" ry="4.6"/><rect x="83.5" y="224.8" width="23.0" height="18.4" fill="#efc09a" stroke="none" stroke-width="0" rx="9.2" ry="9.2"/><rect x="180.1" y="224.8" width="23.0" height="18.4" fill="#efc09a" stroke="none" stroke-width="0" rx="9.2" ry="9.2"/><circle cx="143.3" cy="199.5" r="23.0" fill="#d7eaf7" stroke="#2a2a2a66" stroke-width="2.3"/><rect x="115.69999999999999" y="167.3" width="55.199999999999996" height="25.299999999999997" fill="#fffef8" stroke="#2a2a2a33" stroke-width="2.3" rx="11.5" ry="11.5"/><rect x="108.8" y="185.7" width="69.0" height="11.5" fill="#fffef8" stroke="#2a2a2a33" stroke-width="2.3" rx="6.8999999999999995" ry="6.8999999999999995"/><circle cx="134.1" cy="197.2" r="3.4499999999999997" fill="#fff" stroke="none" stroke-width="0"/><circle cx="152.5" cy="197.2" r="3.4499999999999997" fill="#fff" stroke="none" stroke-width="0"/><circle cx="134.1" cy="197.2" r="1.6099999999999999" fill="#222" stroke="none" stroke-width="0"/><circle cx="152.5" cy="197.2" r="1.6099999999999999" fill="#222" stroke="none" stroke-width="0"/><rect x="127.19999999999999" y="204.1" width="32.199999999999996" height="6.8999999999999995" fill="#3f2a1e" stroke="none" stroke-width="0" rx="3.4499999999999997" ry="3.4499999999999997"/><rect x="134.1" y="212.15" width="18.4" height="3.4499999999999997" fill="#5a2c22" stroke="none" stroke-width="0" rx="2.3" ry="2.3"/><rect x="81.2" y="162.7" width="124.19999999999999" height="174.79999999999998" fill="#a9ddff55" stroke="#a9ddff" stroke-width="2.3" rx="11.5" ry="11.5"/><text x="32" y="392" font-family="Verdana,Arial,sans-serif" font-size="11" fill="#2f2f2f" font-weight="normal">Encased in ice, faint breathing</text><text x="32" y="418" font-family="Verdana,Arial,sans-serif" font-size="11" fill="#494949" font-weight="normal">loop frames: 3</text><text x="32" y="436" font-family="Verdana,Arial,sans-serif" font-size="11" fill="#494949" font-weight="normal">playback: 5 fps</text><rect x="270" y="84" width="244" height="640" fill="#e8dfcf" stroke="#c6b9a2" stroke-width="1" rx="10" ry="10"/><text x="282" y="110" font-family="Verdana,Arial,sans-serif" font-size="15" fill="#1f1f1f" font-weight="bold">Thawing</text><text x="282" y="128" font-family="Verdana,Arial,sans-serif" font-size="12" fill="#555" font-weight="normal">~300°F</text><rect x="280" y="136" width="224" height="230" fill="#e6f5ff" stroke="none" stroke-width="0" rx="8" ry="8"/><rect x="347.3" y="328.29999999999995" width="92.0" height="16.099999999999998" fill="#00000022" stroke="none" stroke-width="0" rx="9.2" ry="9.2"/><rect x="365.7" y="270.8" width="20.7" height="55.199999999999996" fill="#1d9688" stroke="none" stroke-width="0" rx="6.8999999999999995" ry="6.8999999999999995"/><rect x="400.2" y="270.8" width="20.7" height="55.199999999999996" fill="#1d9688" stroke="none" stroke-width="0" rx="6.8999999999999995" ry="6.8999999999999995"/><rect x="361.1" y="316.79999999999995" width="29.9" height="13.799999999999999" fill="#2a2a2a" stroke="none" stroke-width="0" rx="4.6" ry="4.6"/><rect x="395.6" y="316.79999999999995" width="29.9" height="13.799999999999999" fill="#2a2a2a" stroke="none" stroke-width="0" rx="4.6" ry="4.6"/><rect x="349.6" y="215.6" width="87.39999999999999" height="62.099999999999994" fill="#f0ece0" stroke="#2a2a2a66" stroke-width="2.3" rx="16.099999999999998" ry="16.099999999999998"/><rect x="387.55" y="215.6" width="11.5" height="62.099999999999994" fill="#e56f4a" stroke="none" stroke-width="0" rx="4.6" ry="4.6"/><rect x="333.5" y="224.8" width="23.0" height="18.4" fill="#efc09a" stroke="none" stroke-width="0" rx="9.2" ry="9.2"/><rect x="430.1" y="224.8" width="23.0" height="18.4" fill="#efc09a" stroke="none" stroke-width="0" rx="9.2" ry="9.2"/><circle cx="393.3" cy="199.5" r="23.0" fill="#efc09a" stroke="#2a2a2a66" stroke-width="2.3"/><rect x="365.7" y="167.3" width="55.199999999999996" height="25.299999999999997" fill="#fffef8" stroke="#2a2a2a33" stroke-width="2.3" rx="11.5" ry="11.5"/><rect x="358.8" y="185.7" width="69.0" height="11.5" fill="#fffef8" stroke="#2a2a2a33" stroke-width="2.3" rx="6.8999999999999995" ry="6.8999999999999995"/><circle cx="384.1" cy="197.2" r="3.4499999999999997" fill="#fff" stroke="none" stroke-width="0"/><circle cx="402.5" cy="197.2" r="3.4499999999999997" fill="#fff" stroke="none" stroke-width="0"/><circle cx="384.1" cy="197.2" r="1.6099999999999999" fill="#222" stroke="none" stroke-width="0"/><circle cx="402.5" cy="197.2" r="1.6099999999999999" fill="#222" stroke="none" stroke-width="0"/><rect x="377.2" y="204.1" width="32.199999999999996" height="6.8999999999999995" fill="#3f2a1e" stroke="none" stroke-width="0" rx="3.4499999999999997" ry="3.4499999999999997"/><rect x="384.1" y="212.15" width="18.4" height="3.4499999999999997" fill="#5a2c22" stroke="none" stroke-width="0" rx="2.3" ry="2.3"/><rect x="340.4" y="335.2" width="4.6" height="11.5" fill="#8ed6ff" stroke="none" stroke-width="0" rx="2.3" ry="2.3"/><rect x="370.3" y="335.2" width="4.6" height="11.5" fill="#8ed6ff" stroke="none" stroke-width="0" rx="2.3" ry="2.3"/><rect x="397.9" y="335.2" width="4.6" height="11.5" fill="#8ed6ff" stroke="none" stroke-width="0" rx="2.3" ry="2.3"/><rect x="427.8" y="335.2" width="4.6" height="11.5" fill="#8ed6ff" stroke="none" stroke-width="0" rx="2.3" ry="2.3"/><text x="282" y="392" font-family="Verdana,Arial,sans-serif" font-size="11" fill="#2f2f2f" font-weight="normal">Melting block, blink + stiff motion</text><text x="282" y="418" font-family="Verdana,Arial,sans-serif" font-size="11" fill="#494949" font-weight="normal">loop frames: 4</text><text x="282" y="436" font-family="Verdana,Arial,sans-serif" font-size="11" fill="#494949" font-weight="normal">playback: 7 fps</text><rect x="520" y="84" width="244" height="640" fill="#e8dfcf" stroke="#c6b9a2" stroke-width="1" rx="10" ry="10"/><text x="532" y="110" font-family="Verdana,Arial,sans-serif" font-size="15" fill="#1f1f1f" font-weight="bold">Active</text><text x="532" y="128" font-family="Verdana,Arial,sans-serif" font-size="12" fill="#555" font-weight="normal">~400°F</text><rect x="530" y="136" width="224" height="230" fill="#f9f3cc" stroke="none" stroke-width="0" rx="8" ry="8"/><rect x="597.3" y="328.29999999999995" width="92.0" height="16.099999999999998" fill="#00000022" stroke="none" stroke-width="0" rx="9.2" ry="9.2"/><rect x="615.7" y="270.8" width="20.7" height="55.199999999999996" fill="#1d9688" stroke="none" stroke-width="0" rx="6.8999999999999995" ry="6.8999999999999995"/><rect x="650.2" y="270.8" width="20.7" height="55.199999999999996" fill="#1d9688" stroke="none" stroke-width="0" rx="6.8999999999999995" ry="6.8999999999999995"/><rect x="611.1" y="316.79999999999995" width="29.9" height="13.799999999999999" fill="#2a2a2a" stroke="none" stroke-width="0" rx="4.6" ry="4.6"/><rect x="645.6" y="316.79999999999995" width="29.9" height="13.799999999999999" fill="#2a2a2a" stroke="none" stroke-width="0" rx="4.6" ry="4.6"/><rect x="599.6" y="215.6" width="87.39999999999999" height="62.099999999999994" fill="#f0ece0" stroke="#2a2a2a66" stroke-width="2.3" rx="16.099999999999998" ry="16.099999999999998"/><rect x="637.55" y="215.6" width="11.5" height="62.099999999999994" fill="#e56f4a" stroke="none" stroke-width="0" rx="4.6" ry="4.6"/><rect x="583.5" y="224.8" width="23.0" height="18.4" fill="#efc09a" stroke="none" stroke-width="0" rx="9.2" ry="9.2"/><rect x="680.1" y="224.8" width="23.0" height="18.4" fill="#efc09a" stroke="none" stroke-width="0" rx="9.2" ry="9.2"/><circle cx="643.3" cy="199.5" r="23.0" fill="#efc09a" stroke="#2a2a2a66" stroke-width="2.3"/><rect x="615.7" y="167.3" width="55.199999999999996" height="25.299999999999997" fill="#fffef8" stroke="#2a2a2a33" stroke-width="2.3" rx="11.5" ry="11.5"/><rect x="608.8" y="185.7" width="69.0" height="11.5" fill="#fffef8" stroke="#2a2a2a33" stroke-width="2.3" rx="6.8999999999999995" ry="6.8999999999999995"/><circle cx="634.1" cy="197.2" r="3.4499999999999997" fill="#fff" stroke="none" stroke-width="0"/><circle cx="652.5" cy="197.2" r="3.4499999999999997" fill="#fff" stroke="none" stroke-width="0"/><circle cx="635.25" cy="197.2" r="1.6099999999999999" fill="#222" stroke="none" stroke-width="0"/><circle cx="653.65" cy="197.2" r="1.6099999999999999" fill="#222" stroke="none" stroke-width="0"/><rect x="627.2" y="204.1" width="32.199999999999996" height="6.8999999999999995" fill="#3f2a1e" stroke="none" stroke-width="0" rx="3.4499999999999997" ry="3.4499999999999997"/><rect x="634.1" y="212.15" width="18.4" height="3.4499999999999997" fill="#5a2c22" stroke="none" stroke-width="0" rx="2.3" ry="2.3"/><text x="532" y="392" font-family="Verdana,Arial,sans-serif" font-size="11" fill="#2f2f2f" font-weight="normal">Tossing pizza, confident grin</text><text x="532" y="418" font-family="Verdana,Arial,sans-serif" font-size="11" fill="#494949" font-weight="normal">loop frames: 6</text><text x="532" y="436" font-family="Verdana,Arial,sans-serif" font-size="11" fill="#494949" font-weight="normal">playback: 9 fps</text><rect x="770" y="84" width="244" height="640" fill="#e8dfcf" stroke="#c6b9a2" stroke-width="1" rx="10" ry="10"/><text x="782" y="110" font-family="Verdana,Arial,sans-serif" font-size="15" fill="#1f1f1f" font-weight="bold">Hot</text><text x="782" y="128" font-family="Verdana,Arial,sans-serif" font-size="12" fill="#555" font-weight="normal">~500°F</text><rect x="780" y="136" width="224" height="230" fill="#ffd9ad" stroke="none" stroke-width="0" rx="8" ry="8"/><rect x="847.3" y="328.29999999999995" width="92.0" height="16.099999999999998" fill="#00000022" stroke="none" stroke-width="0" rx="9.2" ry="9.2"/><rect x="865.7" y="270.8" width="20.7" height="55.199999999999996" fill="#1d9688" stroke="none" stroke-width="0" rx="6.8999999999999995" ry="6.8999999999999995"/><rect x="900.2" y="270.8" width="20.7" height="55.199999999999996" fill="#1d9688" stroke="none" stroke-width="0" rx="6.8999999999999995" ry="6.8999999999999995"/><rect x="861.1" y="316.79999999999995" width="29.9" height="13.799999999999999" fill="#2a2a2a" stroke="none" stroke-width="0" rx="4.6" ry="4.6"/><rect x="895.6" y="316.79999999999995" width="29.9" height="13.799999999999999" fill="#2a2a2a" stroke="none" stroke-width="0" rx="4.6" ry="4.6"/><rect x="849.6" y="215.6" width="87.39999999999999" height="62.099999999999994" fill="#f0ece0" stroke="#2a2a2a66" stroke-width="2.3" rx="16.099999999999998" ry="16.099999999999998"/><rect x="887.55" y="215.6" width="11.5" height="62.099999999999994" fill="#e56f4a" stroke="none" stroke-width="0" rx="4.6" ry="4.6"/><rect x="833.5" y="224.8" width="23.0" height="18.4" fill="#e9a183" stroke="none" stroke-width="0" rx="9.2" ry="9.2"/><rect x="930.1" y="224.8" width="23.0" height="18.4" fill="#e9a183" stroke="none" stroke-width="0" rx="9.2" ry="9.2"/><circle cx="893.3" cy="199.5" r="23.0" fill="#e9a183" stroke="#2a2a2a66" stroke-width="2.3"/><rect x="865.7" y="167.3" width="55.199999999999996" height="25.299999999999997" fill="#fffef8" stroke="#2a2a2a33" stroke-width="2.3" rx="11.5" ry="11.5"/><rect x="858.8" y="185.7" width="69.0" height="11.5" fill="#fffef8" stroke="#2a2a2a33" stroke-width="2.3" rx="6.8999999999999995" ry="6.8999999999999995"/><circle cx="884.1" cy="197.2" r="3.4499999999999997" fill="#fff" stroke="none" stroke-width="0"/><circle cx="902.5" cy="197.2" r="3.4499999999999997" fill="#fff" stroke="none" stroke-width="0"/><circle cx="885.25" cy="197.2" r="1.6099999999999999" fill="#222" stroke="none" stroke-width="0"/><circle cx="903.65" cy="197.2" r="1.6099999999999999" fill="#222" stroke="none" stroke-width="0"/><rect x="877.2" y="204.1" width="32.199999999999996" height="6.8999999999999995" fill="#3f2a1e" stroke="none" stroke-width="0" rx="3.4499999999999997" ry="3.4499999999999997"/><rect x="884.1" y="212.15" width="18.4" height="3.4499999999999997" fill="#7a2b21" stroke="none" stroke-width="0" rx="2.3" ry="2.3"/><circle cx="918.6" cy="199.5" r="2.3" fill="#8ed6ff" stroke="none" stroke-width="0"/><circle cx="925.5" cy="206.4" r="2.07" fill="#8ed6ff" stroke="none" stroke-width="0"/><text x="782" y="392" font-family="Verdana,Arial,sans-serif" font-size="11" fill="#2f2f2f" font-weight="normal">Sweating + fanning, flushed face</text><text x="782" y="418" font-family="Verdana,Arial,sans-serif" font-size="11" fill="#494949" font-weight="normal">loop frames: 7</text><text x="782" y="436" font-family="Verdana,Arial,sans-serif" font-size="11" fill="#494949" font-weight="normal">playback: 10 fps</text><rect x="1020" y="84" width="244" height="640" fill="#e8dfcf" stroke="#c6b9a2" stroke-width="1" rx="10" ry="10"/><text x="1032" y="110" font-family="Verdana,Arial,sans-serif" font-size="15" fill="#1f1f1f" font-weight="bold">Very Hot</text><text x="1032" y="128" font-family="Verdana,Arial,sans-serif" font-size="12" fill="#555" font-weight="normal">500°F+</text><rect x="1030" y="136" width="224" height="230" fill="#1f1717" stroke="none" stroke-width="0" rx="8" ry="8"/><rect x="1097.3" y="328.29999999999995" width="92.0" height="16.099999999999998" fill="#00000022" stroke="none" stroke-width="0" rx="9.2" ry="9.2"/><rect x="1115.7" y="270.8" width="20.7" height="55.199999999999996" fill="#1d9688" stroke="none" stroke-width="0" rx="6.8999999999999995" ry="6.8999999999999995"/><rect x="1150.2" y="270.8" width="20.7" height="55.199999999999996" fill="#1d9688" stroke="none" stroke-width="0" rx="6.8999999999999995" ry="6.8999999999999995"/><rect x="1111.1" y="316.79999999999995" width="29.9" height="13.799999999999999" fill="#2a2a2a" stroke="none" stroke-width="0" rx="4.6" ry="4.6"/><rect x="1145.6" y="316.79999999999995" width="29.9" height="13.799999999999999" fill="#2a2a2a" stroke="none" stroke-width="0" rx="4.6" ry="4.6"/><rect x="1099.6" y="215.6" width="87.39999999999999" height="62.099999999999994" fill="#cb5a49" stroke="#2a2a2a66" stroke-width="2.3" rx="16.099999999999998" ry="16.099999999999998"/><rect x="1083.5" y="224.8" width="23.0" height="18.4" fill="#cb5a49" stroke="none" stroke-width="0" rx="9.2" ry="9.2"/><rect x="1180.1" y="224.8" width="23.0" height="18.4" fill="#cb5a49" stroke="none" stroke-width="0" rx="9.2" ry="9.2"/><circle cx="1143.3" cy="199.5" r="23.0" fill="#cb5a49" stroke="#2a2a2a66" stroke-width="2.3"/><rect x="1115.7" y="167.3" width="55.199999999999996" height="25.299999999999997" fill="#fffef8" stroke="#2a2a2a33" stroke-width="2.3" rx="11.5" ry="11.5"/><rect x="1108.8" y="185.7" width="69.0" height="11.5" fill="#fffef8" stroke="#2a2a2a33" stroke-width="2.3" rx="6.8999999999999995" ry="6.8999999999999995"/><circle cx="1134.1" cy="197.2" r="3.4499999999999997" fill="#fff" stroke="none" stroke-width="0"/><circle cx="1152.5" cy="197.2" r="3.4499999999999997" fill="#fff" stroke="none" stroke-width="0"/><circle cx="1135.25" cy="197.2" r="1.6099999999999999" fill="#222" stroke="none" stroke-width="0"/><circle cx="1153.65" cy="197.2" r="1.6099999999999999" fill="#222" stroke="none" stroke-width="0"/><rect x="1127.2" y="204.1" width="32.199999999999996" height="6.8999999999999995" fill="#3f2a1e" stroke="none" stroke-width="0" rx="3.4499999999999997" ry="3.4499999999999997"/><rect x="1134.1" y="212.15" width="18.4" height="3.4499999999999997" fill="#7a2b21" stroke="none" stroke-width="0" rx="2.3" ry="2.3"/><circle cx="1168.6" cy="199.5" r="2.3" fill="#8ed6ff" stroke="none" stroke-width="0"/><circle cx="1175.5" cy="206.4" r="2.07" fill="#8ed6ff" stroke="none" stroke-width="0"/><rect x="1067.4" y="158.1" width="9.2" height="188.6" fill="#ff4d1f" stroke="none" stroke-width="0" rx="0" ry="0"/><rect x="1207.7" y="158.1" width="9.2" height="188.6" fill="#ff4d1f" stroke="none" stroke-width="0" rx="0" ry="0"/><text x="1032" y="392" font-family="Verdana,Arial,sans-serif" font-size="11" fill="#2f2f2f" font-weight="normal">Panting, shirt off, fire edges</text><text x="1032" y="418" font-family="Verdana,Arial,sans-serif" font-size="11" fill="#494949" font-weight="normal">loop frames: 9</text><text x="1032" y="436" font-family="Verdana,Arial,sans-serif" font-size="11" fill="#494949" font-weight="normal">playback: 12 fps</text><text x="24" y="752" font-family="Verdana,Arial,sans-serif" font-size="12" fill="#333" font-weight="bold">Style intent: retro arcade energy + modern HD sprite finish (not strict pixel grid).</text></svg>